<svg xmlns="http://www.w3.org/2000/svg" width="180" height="180" viewBox="0 0 32 32" role="img" aria-label="The Verde">
  <title>The Verde</title>
  <rect width="32" height="32" rx="7" fill="#CAD3C1"/>
  <path fill="#3E5C4E" d="M8.75 14c0-2.6 3.25-4.25 7.25-4.25s7.25 1.65 7.25 4.25v.5c0 6.1-3 9-7.25 9s-7.25-2.9-7.25-9V14z"/>
  <ellipse cx="16" cy="14.25" rx="6.5" ry="1.4" fill="#5A7D6A"/>
  <path fill="#2D4539" d="M11 22.75c0-.9 2.25-1.65 5-1.65s5 .75 5 1.65c0 .9-2.25 1.65-5 1.65s-5-.75-5-1.65z"/>
  <path fill="none" stroke="#5A7D6A" stroke-width=".65" stroke-linecap="round" opacity=".45" d="M9.5 14c0 0 2.75-1.35 6.5-1.35S22.5 14 22.5 14"/>
</svg>
