<svg xmlns="http://www.w3.org/2000/svg" aria-hidden="true" style="display:none">
  <symbol id="tv-icon-leaf" viewBox="0 0 24 24" fill="none" stroke="currentColor" stroke-width="1.5" stroke-linecap="round" stroke-linejoin="round">
    <path d="M6 20c6-8 12-14 12-18 0 0-6 2-12 10S2 16 2 16s2 2 4 4z"/>
    <path d="M6 20c2-4 6-8 12-10"/>
  </symbol>
  <symbol id="tv-icon-cup" viewBox="0 0 24 24" fill="none" stroke="currentColor" stroke-width="1.5" stroke-linecap="round" stroke-linejoin="round">
    <path d="M5 8h12v5a5 5 0 0 1-5 5H10a5 5 0 0 1-5-5V8z"/>
    <path d="M17 10h2a2 2 0 0 1 0 4h-2M6 18h8"/>
  </symbol>
  <symbol id="tv-icon-book" viewBox="0 0 24 24" fill="none" stroke="currentColor" stroke-width="1.5" stroke-linecap="round" stroke-linejoin="round">
    <path d="M5 4h9a3 3 0 0 1 3 3v14H8a3 3 0 0 0-3 3V4z"/>
    <path d="M8 4v17a3 3 0 0 1 3-3h9V7a3 3 0 0 0-3-3"/>
  </symbol>
  <symbol id="tv-icon-map" viewBox="0 0 24 24" fill="none" stroke="currentColor" stroke-width="1.5" stroke-linecap="round" stroke-linejoin="round">
    <path d="M9 4l-6 2v14l6-2 6 2 6-2V4l-6 2-6-2z"/>
    <path d="M9 4v14M15 6v14"/>
  </symbol>
  <symbol id="tv-icon-thermo" viewBox="0 0 24 24" fill="none" stroke="currentColor" stroke-width="1.5" stroke-linecap="round" stroke-linejoin="round">
    <path d="M12 14V4"/>
    <path d="M12 14a3 3 0 1 0 0 6 3 3 0 0 0 0-6z"/>
    <path d="M9 4h6"/>
  </symbol>
  <symbol id="tv-icon-scale" viewBox="0 0 24 24" fill="none" stroke="currentColor" stroke-width="1.5" stroke-linecap="round" stroke-linejoin="round">
    <path d="M12 3v18"/>
    <path d="M5 7h14"/>
    <path d="M7 7l-2 6h4l-2-6zM17 7l-2 6h4l-2-6z"/>
  </symbol>
  <symbol id="tv-icon-timer" viewBox="0 0 24 24" fill="none" stroke="currentColor" stroke-width="1.5" stroke-linecap="round" stroke-linejoin="round">
    <circle cx="12" cy="13" r="8"/>
    <path d="M12 9v5l3 2"/>
    <path d="M9 3h6"/>
  </symbol>
  <symbol id="tv-icon-italy" viewBox="0 0 24 24" fill="none" stroke="currentColor" stroke-width="1.5" stroke-linecap="round" stroke-linejoin="round">
    <path d="M4 5h5v14H4zM10 5h5v14h-5zM16 5h4v14h-4z"/>
  </symbol>
  <symbol id="tv-icon-nose" viewBox="0 0 24 24" fill="none" stroke="currentColor" stroke-width="1.5" stroke-linecap="round" stroke-linejoin="round">
    <path d="M12 4c0 4-4 5-4 9a4 4 0 0 0 8 0c0-4-4-5-4-9z"/>
    <path d="M10 17c1 1 3 1 4 0"/>
  </symbol>
  <symbol id="tv-icon-drop" viewBox="0 0 24 24" fill="none" stroke="currentColor" stroke-width="1.5" stroke-linecap="round" stroke-linejoin="round">
    <path d="M12 3c-4 6-7 9-7 13a7 7 0 0 0 14 0c0-4-3-7-7-13z"/>
  </symbol>
  <symbol id="tv-icon-sun" viewBox="0 0 24 24" fill="none" stroke="currentColor" stroke-width="1.5" stroke-linecap="round" stroke-linejoin="round">
    <circle cx="12" cy="12" r="4"/>
    <path d="M12 2v2M12 20v2M4.9 4.9l1.4 1.4M17.7 17.7l1.4 1.4M2 12h2M20 12h2M4.9 19.1l1.4-1.4M17.7 6.3l1.4-1.4"/>
  </symbol>
  <symbol id="tv-icon-path" viewBox="0 0 24 24" fill="none" stroke="currentColor" stroke-width="1.5" stroke-linecap="round" stroke-linejoin="round">
    <circle cx="6" cy="6" r="2"/>
    <circle cx="18" cy="18" r="2"/>
    <path d="M8 6h5a3 3 0 0 1 3 3v6"/>
  </symbol>
  <symbol id="tv-icon-grid" viewBox="0 0 24 24" fill="none" stroke="currentColor" stroke-width="1.5" stroke-linecap="round" stroke-linejoin="round">
    <rect x="4" y="4" width="6" height="6" rx="1"/>
    <rect x="14" y="4" width="6" height="6" rx="1"/>
    <rect x="4" y="14" width="6" height="6" rx="1"/>
    <rect x="14" y="14" width="6" height="6" rx="1"/>
  </symbol>
  <symbol id="tv-icon-list" viewBox="0 0 24 24" fill="none" stroke="currentColor" stroke-width="1.5" stroke-linecap="round" stroke-linejoin="round">
    <path d="M9 6h12M9 12h12M9 18h12"/>
    <circle cx="5" cy="6" r="1" fill="currentColor"/>
    <circle cx="5" cy="12" r="1" fill="currentColor"/>
    <circle cx="5" cy="18" r="1" fill="currentColor"/>
  </symbol>
  <symbol id="tv-icon-info" viewBox="0 0 24 24" fill="none" stroke="currentColor" stroke-width="1.5" stroke-linecap="round" stroke-linejoin="round">
    <circle cx="12" cy="12" r="9"/>
    <path d="M12 10v6M12 7h.01"/>
  </symbol>
  <symbol id="tv-icon-search" viewBox="0 0 24 24" fill="none" stroke="currentColor" stroke-width="1.5" stroke-linecap="round" stroke-linejoin="round">
    <circle cx="11" cy="11" r="7"/>
    <path d="M20 20l-3-3"/>
  </symbol>
  <symbol id="tv-icon-filter" viewBox="0 0 24 24" fill="none" stroke="currentColor" stroke-width="1.5" stroke-linecap="round" stroke-linejoin="round">
    <path d="M4 6h16M7 12h10M10 18h4"/>
  </symbol>
</svg>
